<svg id="Calque_1" data-name="Calque 1" xmlns="http://www.w3.org/2000/svg" width="200" height="90" viewBox="0 0 200 90"><title>Somei_logo_footer</title><path d="M60.24421,30.36875a22.97388,22.97388,0,0,0-5.11958.58109l.18819-.08274s-.30167-.18353-.766-.53266a16.30635,16.30635,0,0,1-1.72062-1.53555c-.3253-.33121-.66329-.69639-.99363-1.09452-.33967-.394-.66836-.82259-.9938-1.27228a23.11548,23.11548,0,0,1-1.80651-2.92047,19.91677,19.91677,0,0,1-1.33007-3.13,16.436,16.436,0,0,1-.66557-2.948c-.05612-.44956-.08811-.87018-.10415-1.24845-.01-.381-.00883-.7174.00691-1.00095.02386-.41619.06474-.71085.085-.83927A8.23926,8.23926,0,1,0,41.057,16.91077l.00936-.00047a7.94153,7.94153,0,0,1,.72579.53719c.21961.1801.46835.40659.74227.67148.26791.2675.55626.57549.84964.92073a16.43256,16.43256,0,0,1,1.72254,2.4832,19.91652,19.91652,0,0,1,1.40754,3.09594,23.121,23.121,0,0,1,.93107,3.30552c.1114.5438.205,1.07566.26576,1.59234.07012.51259.11073,1.00846.13489,1.472a16.306,16.306,0,0,1-.03145,2.306c-.03756.38387-.08.66242-.10462.80839A22.9066,22.9066,0,0,0,42.289,67.52728a3.381,3.381,0,0,1-.00007.41213c-.00792.22817-.01648.50614-.05434.8003-.03622.29563-.09368.61449-.16859.95161l-.13526.50964-.17228.52111a10.029,10.029,0,0,1-.45936,1.04827,9.47622,9.47622,0,0,1-1.3532,1.96591,10.48881,10.48881,0,0,1-1.769,1.59973,9.96715,9.96715,0,0,1-1.92083,1.063,8.87563,8.87563,0,0,1-.88971.31664c-.27281.08727-.5432.13473-.754.1842-.207.0529-.40458.06364-.52269.08559-.12516.01578-.19823.01859-.19823.01859l.04776.04206a6.32257,6.32257,0,1,0,4.9142,4.22594c-.00094-.02883-.00211-.05367-.00218-.09411.00681-.12-.00755-.31731.01873-.5293.02239-.21541.03518-.4897.08723-.77137a8.88215,8.88215,0,0,1,.20145-.92261,9.97072,9.97072,0,0,1,.81131-2.04,10.48959,10.48959,0,0,1,1.36293-1.95732,9.47421,9.47421,0,0,1,1.77876-1.59113,10.01953,10.01953,0,0,1,.98168-.58838l.4951-.23689.48842-.1987c.32493-.11694.634-.21434.92261-.28771.287-.07478.56166-.11841.787-.1552.02524-.0051.04662-.00591.07139-.01A22.91886,22.91886,0,1,0,60.24421,30.36875Zm0,40.847A17.92623,17.92623,0,1,1,78.1705,53.28947,17.92682,17.92682,0,0,1,60.24421,71.21576ZM74.44,25.55709a3.755,3.755,0,1,0-3.75568-3.75487A3.75906,3.75906,0,0,0,74.44,25.55709Zm0-6.008a2.25295,2.25295,0,1,1-2.25362,2.25308A2.25551,2.25551,0,0,1,74.44,19.54913ZM59.8641,78.88866a4.51181,4.51181,0,1,0,4.51207,4.51154A4.51664,4.51664,0,0,0,59.8641,78.88866Zm0,7.21921a2.70741,2.70741,0,1,1,2.70714-2.70767A2.71057,2.71057,0,0,1,59.8641,86.10787Z" style="fill:#0069b4"/><path d="M111.767,82.23868a3.92787,3.92787,0,0,0-1.80547.39391c-.02094.27227-.03168.54186-.03168.83266v5.27841h.80607v-1.824a4.97673,4.97673,0,0,0,1.17662.15332c1.41935,0,2.01115-.60791,2.01115-2.4158C113.9237,82.81759,113.28679,82.23868,111.767,82.23868Zm-.07411,4.18932a3.2983,3.2983,0,0,1-.957-.16111V83.75845c0-.21669.00806-.4809.02417-.68981A2.56735,2.56735,0,0,1,111.767,82.881c1.14977,0,1.34256.69518,1.34256,1.77621C113.10957,85.80425,112.97478,86.428,111.69291,86.428Zm5.16885-4.18932a3.92787,3.92787,0,0,0-1.80547.39391c-.02094.27227-.03168.54186-.03168.83266v5.27841h.80607v-1.824a4.97673,4.97673,0,0,0,1.17662.15332c1.41935,0,2.01115-.60791,2.01115-2.4158C119.01845,82.81759,118.38154,82.23868,116.86176,82.23868Zm-.07411,4.18932a3.2983,3.2983,0,0,1-.957-.16111V83.75845c0-.21669.00806-.4809.02417-.68981a2.56735,2.56735,0,0,1,1.00692-.18769c1.14977,0,1.34256.69518,1.34256,1.77621C118.20432,85.80425,118.06953,86.428,116.78765,86.428ZM99.53952,82.23868c-1.55415,0-2.07506.70833-2.07506,2.4158,0,1.39572.40975,2.41849,1.96927,2.41849a11.79716,11.79716,0,0,0,2.001-.16379l-.07142-.62375a12.77252,12.77252,0,0,1-1.67605.12674c-.97255,0-1.34793-.362-1.41667-1.3004l.98329-.04216c.65571-.02927,1.77379-.13479,2.313-.22743.01074-.12942.01289-.27737.01289-.40169C101.57967,83.10033,101.18066,82.23868,99.53952,82.23868Zm1.21582,2.125c-.38344.05021-1.015.10042-1.39841.119l-1.10466.05021c0-1.04666.19548-1.66236,1.28725-1.66236.91455,0,1.22656.45191,1.22656,1.21314C100.76608,84.16552,100.7634,84.28447,100.75534,84.36368Zm21.27527-2.125c-1.55415,0-2.07506.70833-2.07506,2.4158,0,1.39572.40975,2.41849,1.96927,2.41849a11.79716,11.79716,0,0,0,2.001-.16379l-.07142-.62375a12.77252,12.77252,0,0,1-1.67605.12674c-.97255,0-1.34793-.362-1.41667-1.3004l.98329-.04216c.65571-.02927,1.77379-.13479,2.313-.22743.01074-.12942.01289-.27737.01289-.40169C124.07077,83.10033,123.67176,82.23868,122.03061,82.23868Zm1.21582,2.125c-.38344.05021-1.015.10042-1.39841.119l-1.10466.05021c0-1.04666.19548-1.66236,1.28725-1.66236.91455,0,1.226.45191,1.226,1.21314C123.25664,84.16552,123.25449,84.28447,123.24644,84.36368Zm-39.39338-3.576a12.43466,12.43466,0,0,0-1.9161.148v5.98406a12.06508,12.06508,0,0,0,1.9161.15332c2.28343,0,2.68566-1.04934,2.68566-3.14266S86.13648,80.78764,83.85305,80.78764Zm-.1799,5.57968a6.96207,6.96207,0,0,1-.87481-.06605V81.55934a6.96207,6.96207,0,0,1,.87481-.06605c1.98806,0,2.001,1.05471,2.001,2.437S85.66121,86.36732,83.67315,86.36732Zm6.0195-4.12864c-1.55683,0-2.07775.70833-2.07775,2.4158,0,1.39572.41243,2.41849,1.96927,2.41849a11.79716,11.79716,0,0,0,2.001-.16379l-.07142-.62375a12.76591,12.76591,0,0,1-1.67337.12674c-.97524,0-1.35061-.362-1.41667-1.3004l.98061-.04216c.65571-.02927,1.77379-.13479,2.313-.22743.01074-.12942.01289-.27737.01289-.40169C91.73012,83.10033,91.33379,82.23868,89.69265,82.23868Zm1.21314,2.125c-.38344.05021-1.015.10042-1.39841.119l-1.10466.05021c0-1.04666.19548-1.66236,1.28993-1.66236.91455,0,1.22334.45191,1.22334,1.21314C90.916,84.16552,90.91384,84.28447,90.90579,84.36368Zm15.76326-2.125c-1.52783,0-2.07989.65544-2.07989,2.4158,0,1.763.55206,2.41849,2.07989,2.41849,1.53052,0,2.08043-.68712,2.08043-2.41849C108.74948,82.9207,108.19957,82.23868,106.669,82.23868Zm0,4.17348c-.96181,0-1.26308-.35417-1.26308-1.75768s.30127-1.755,1.26308-1.755c.97792,0,1.269.40975,1.269,1.755C107.938,86.00268,107.6416,86.41216,106.669,86.41216Zm-3.2404-5.92847h-.80876v5.30741a1.99884,1.99884,0,0,0,.4758,1.42741l.69491-.3437a1.70891,1.70891,0,0,1-.362-1.12856Zm-8.81578,5.7091L93.23325,82.302h-.8587l1.56972,4.224c.13748.37269.3437.547.653.547.30664,0,.5048-.17695.645-.547l1.58583-4.224H96.0059Zm-3.55134-5.82805h-.92476l-.79855,1.3243h.6396Zm97.3055,1.87394a5.15251,5.15251,0,0,0-2.12554.40169c-.02094.27227-.03168.54186-.03168.83266V87.0096h.80876V83.78235c0-.21937.00537-.48386.02417-.68981a3.006,3.006,0,0,1,1.081-.19843c1.081,0,1.22871.36222,1.22871,1.18951v2.926h.80929V83.97C190.16176,83.00528,189.99743,82.23868,188.367,82.23868Zm-17.99567.39391c-.02148.27227-.03222.54186-.03222.83266V87.0096h.80929V83.77967c0-.21669.00483-.48117.02094-.68981a2.58087,2.58087,0,0,1,1.0096-.18769,3.14855,3.14855,0,0,1,.37269.01853l.06605-.66349c-.13748-.01316-.283-.01853-.43875-.01853A3.93523,3.93523,0,0,0,170.37135,82.63258Zm-3.28444-.39391c-1.52783,0-2.07989.65544-2.07989,2.4158,0,1.763.55206,2.41849,2.07989,2.41849,1.53052,0,2.08043-.68712,2.08043-2.41849C169.16735,82.9207,168.61743,82.23868,167.08692,82.23868Zm0,4.17348c-.96181,0-1.26308-.35417-1.26308-1.75768s.30127-1.755,1.26308-1.755c.97792,0,1.269.40975,1.269,1.755C168.3559,86.00268,168.05947,86.41216,167.08692,86.41216Zm11.22272-4.17348a4.05218,4.05218,0,0,0-1.63094.341,1.77217,1.77217,0,0,0-1.19434-.341,5.05045,5.05045,0,0,0-1.94832.40169c-.01826.27227-.03168.54186-.03168.83266V87.0096h.80876V83.78235c0-.21937.00537-.48386.02417-.68981a2.59189,2.59189,0,0,1,.92476-.19575c.87,0,1.06546.37806,1.06546,1.18414V87.0096h.80876V83.97a2.80289,2.80289,0,0,0-.09505-.80876,2.39628,2.39628,0,0,1,1.04666-.26448c.86944,0,1.06492.37806,1.06492,1.18414V87.0096h.80876V83.97C179.96153,83.02891,179.75048,82.23868,178.30964,82.23868Zm15.32881,4.155c-1.4113,0-1.49293-.59449-1.49293-1.78668,0-1.266.13211-1.69968,1.4983-1.69968a4.74878,4.74878,0,0,1,.79855.08727l.06605-.60791a4.11507,4.11507,0,0,0-1.12077-.148c-1.71042,0-2.06432.82729-2.06432,2.36828,0,1.31625.275,2.466,1.85273,2.466a6.02594,6.02594,0,0,0,1.33987-.15064l-.07626-.63181A4.23871,4.23871,0,0,1,193.63845,86.39363Zm-10.57024-4.155a10.77506,10.77506,0,0,0-1.77862.16648l.06874.61328a12.22356,12.22356,0,0,1,1.60409-.127c.8775,0,1.14977.32248,1.14977,1.03619v.11358a17.658,17.658,0,0,0-1.85273.12969,1.305,1.305,0,0,0-1.22119,1.46688c0,.99645.53917,1.4352,1.80816,1.4352a4.37763,4.37763,0,0,0,2.03-.39364c.02094-.27227.03168-.54186.03168-.83266V83.6924C184.90805,82.50826,184.08855,82.23868,183.06821,82.23868Zm1.044,3.32767c0,.21669-.00537.48117-.02094.69008a3.04556,3.04556,0,0,1-1.13956.18742c-.75559,0-1.11-.15842-1.11-.82192,0-.60254.20622-.78755.71907-.89871a9.5929,9.5929,0,0,1,1.55146-.12164ZM197.353,82.23868c-1.55415,0-2.07506.70833-2.07506,2.4158,0,1.39572.40975,2.41849,1.96927,2.41849a11.79716,11.79716,0,0,0,2.001-.16379l-.07142-.62375a12.77252,12.77252,0,0,1-1.67605.12674c-.97255,0-1.34793-.362-1.41667-1.3004l.98329-.04216c.65571-.02927,1.77379-.13479,2.313-.22743.01074-.12942.01289-.27737.01289-.40169C199.3932,83.10033,198.99419,82.23868,197.353,82.23868Zm1.21582,2.125c-.38343.05021-1.015.10042-1.39841.119l-1.10466.05021c0-1.04666.19548-1.66236,1.28725-1.66236.91455,0,1.22656.45191,1.22656,1.21314C198.57961,84.16552,198.57692,84.28447,198.56887,84.36368Zm-36.12237-2.54254v.4809h-.81628v.61865h.81628v4.0889h.81144V82.9207h1.0284V82.302h-1.0284v-.50749a.67233.67233,0,0,1,.75881-.75586h.28033l.06068-.5816a3.70558,3.70558,0,0,0-.50212-.03679A1.25445,1.25445,0,0,0,162.44649,81.82114Zm-23.57266.57086a4.97177,4.97177,0,0,0-1.1734-.15332c-1.41935,0-2.01438.60791-2.01438,2.4158,0,1.83958.63745,2.41849,2.15722,2.41849a3.91987,3.91987,0,0,0,1.80494-.39364c.02148-.27227.03168-.54186.03168-.83266v-5.363h-.80607Zm0,3.16119c0,.21669-.00806.48117-.02363.68981a2.55806,2.55806,0,0,1-1.00692.18769c-1.14708,0-1.34041-.69518-1.34041-1.77621,0-1.14708.13211-1.77084,1.41667-1.77084a3.30146,3.30146,0,0,1,.95429.16111Zm-10.56648-.02363c0,.21937-.00806.48359-.02417.68981a2.99458,2.99458,0,0,1-1.073.19816c-1.07834,0-1.22388-.36222-1.22388-1.18951V82.302h-.80876v3.03982c0,.96476.16379,1.7311,1.78936,1.7311a5.11656,5.11656,0,0,0,2.1148-.40169c.02094-.27227.03168-.54186.03168-.83266V82.302h-.80607Zm30.3832-2.897c-.02148.27227-.03222.54186-.03222.83266V87.0096h.80929V83.77967c0-.21669.00483-.48117.02094-.68981a2.58087,2.58087,0,0,1,1.0096-.18769,3.14855,3.14855,0,0,1,.37269.01853l.06605-.66349c-.13748-.01316-.283-.01853-.43875-.01853A3.93523,3.93523,0,0,0,158.69055,82.63258Zm-15.75789-.39391c-1.55415,0-2.07506.70833-2.07506,2.4158,0,1.39572.40975,2.41849,1.96927,2.41849a11.79716,11.79716,0,0,0,2.001-.16379l-.07142-.62375a12.77252,12.77252,0,0,1-1.67605.12674c-.97255,0-1.34793-.362-1.41667-1.3004l.98329-.04216c.65571-.02927,1.77379-.13479,2.313-.22743.01074-.12942.01289-.27737.01289-.40169C144.97281,83.10033,144.5738,82.23868,142.93266,82.23868Zm1.21582,2.125c-.38344.05021-1.015.10042-1.39841.119l-1.10466.05021c0-1.04666.19548-1.66236,1.28725-1.66236.91455,0,1.226.45191,1.226,1.21314C144.15868,84.16552,144.15653,84.28447,144.14848,84.36368Zm-13.67531-1.7311c-.02148.27227-.03222.54186-.03222.83266V87.0096h.8093V83.77967c0-.21669.00483-.48117.02094-.68981a2.58087,2.58087,0,0,1,1.0096-.18769,3.14855,3.14855,0,0,1,.37269.01853l.06605-.66349c-.13748-.01316-.283-.01853-.43875-.01853A3.93523,3.93523,0,0,0,130.47317,82.63258Zm19.8484-.39391a3.92787,3.92787,0,0,0-1.80547.39391c-.02094.27227-.03168.54186-.03168.83266v5.27841h.80607v-1.824a4.97673,4.97673,0,0,0,1.17662.15332c1.41935,0,2.01115-.60791,2.01115-2.4158C152.47826,82.81759,151.84135,82.23868,150.32157,82.23868Zm-.07411,4.18932a3.2983,3.2983,0,0,1-.957-.16111V83.75845c0-.21669.00806-.4809.02417-.68981a2.56735,2.56735,0,0,1,1.00692-.18769c1.14977,0,1.34256.69518,1.34256,1.77621C151.66413,85.80425,151.52933,86.428,150.24746,86.428Zm5.243-4.18932c-1.55415,0-2.07506.70833-2.07506,2.4158,0,1.39572.40975,2.41849,1.96927,2.41849a11.79716,11.79716,0,0,0,2.001-.16379l-.07142-.62375a12.77252,12.77252,0,0,1-1.67605.12674c-.97255,0-1.34793-.362-1.41667-1.3004l.98329-.04216c.65571-.02927,1.77379-.13479,2.313-.22743.01074-.12942.01289-.27737.01289-.40169C157.53058,83.10033,157.13157,82.23868,155.49042,82.23868Zm1.21582,2.125c-.38344.05021-1.015.10042-1.39841.119l-1.10466.05021c0-1.04666.19548-1.66236,1.28725-1.66236.91455,0,1.226.45191,1.226,1.21314C156.71645,84.16552,156.7143,84.28447,156.70624,84.36368ZM199.2673,72.48193V32.66882a1.18142,1.18142,0,0,0-1.178-1.178h-3.39782a1.18142,1.18142,0,0,0-1.178,1.178v28.0741c-6.50933,2.2989-14.423,8.62762-22.49586,8.62762-10.097,0-12.95365-3.99435-13.8236-11.79979a1.18535,1.18535,0,0,1,1.12382-1.32041l8.74543-.35235c5.53286-.222,14.67324-1.06985,19.76953-1.83884a1.16987,1.16987,0,0,0,.99578-1.11187c.04394-1.03186.07132-2.1442.07132-3.03966,0-11.53067-3.85939-18.98889-18.13707-18.98889-13.85159,0-18.44469,6.34544-18.44469,21.641,0,12.50141,3.65042,21.98425,17.45042,21.66448,10.54074-.24421,18.436-6.13563,24.74492-8.59225v6.85a1.18142,1.18142,0,0,0,1.178,1.178h3.39782A1.18142,1.18142,0,0,0,199.2673,72.48193ZM169.76291,35.60678c9.21056,0,12.33624,4.546,12.33624,11.69625,0,.5677-.01024,1.28449-.03665,1.95064a1.17639,1.17639,0,0,1-1.03793,1.12862c-3.90453.4556-9.54516.88841-12.94258,1.04069l-9.908.46295a1.18274,1.18274,0,0,1-1.23321-1.20773C157.11895,40.63061,159.57469,35.60678,169.76291,35.60678ZM196.39043,27.635a3.60959,3.60959,0,1,0-3.60961-3.60957A3.60991,3.60991,0,0,0,196.39043,27.635ZM18.75234,42.80448C9.23413,40.0818,6.085,38.82661,6.085,31.55789c0-7.3872,7.12668-8.45292,15.15344-8.45292a73.153,73.153,0,0,1,9.79719.777A1.16637,1.16637,0,0,0,32.3579,22.8571l.28858-2.58466a1.16751,1.16751,0,0,0-.97873-1.28221,83.75673,83.75673,0,0,0-12.8444-1.07046C6.748,17.91977,0,21.54216,0,32.62318,0,42.47293,5.77693,45.03,15.55563,47.96615c7.52968,2.273,12.21776,4.14347,12.21776,11.01,0,8.21593-5.61173,10.01533-13.49608,10.01533a95.6222,95.6222,0,0,1-12.10579-.87652,1.16662,1.16662,0,0,0-1.318,1.01642L.53088,71.84126a1.16635,1.16635,0,0,0,.94154,1.28537,67.43287,67.43287,0,0,0,13.04149,1.09754c12.57284,0,19.5814-4.167,19.5814-15.53207C34.09531,48.96042,27.70238,45.36158,18.75234,42.80448Zm126.0743,29.67624V46.2613c0-8.33441-1.87086-15.34257-14.51468-15.34257a36.07475,36.07475,0,0,0-15.42272,3.379.09723.09723,0,0,1-.112-.01843c-2.15716-2.10171-5.55551-3.36053-10.86534-3.36053a48.28529,48.28529,0,0,0-17.273,3.5026.10459.10459,0,0,0-.06354.09009c-.16228,2.30021-.232,4.69322-.232,7.13282V72.48072A1.17528,1.17528,0,0,0,87.51868,73.656H90.8979a1.1753,1.1753,0,0,0,1.17531-1.17531V44.41438c0-1.96739.04645-4.56121.16181-6.54192a.10154.10154,0,0,1,.06186-.08935,29.87737,29.87737,0,0,1,9.81559-2.01075c8.61849,0,10.58346,3.50432,10.58346,11.50715V72.48072a1.1753,1.1753,0,0,0,1.17531,1.17531h3.40319a1.17528,1.17528,0,0,0,1.17528-1.17531V46.2613a24.13883,24.13883,0,0,0-.98987-7.61154.103.103,0,0,1,.04974-.12466,25.45715,25.45715,0,0,1,11.00295-2.75275c8.59534,0,10.5839,3.50432,10.5839,11.50715V72.48072A1.17528,1.17528,0,0,0,140.2717,73.656h3.37966A1.17528,1.17528,0,0,0,144.82664,72.48072Z" style="fill:#fff"/><circle cx="41.05675" cy="8.66435" r="6.23523" style="fill:#95c11f"/><circle cx="32.86207" cy="83.26468" r="4.67642" style="fill:#d60d47"/></svg>